# xmcd
#
# Track frame offsets:
#	150
#	13676
#	26969
#	39680
#	51626
#	63980
#	75506
#	87830
#	99491
#	111286
#	122936
#	136924
#	149006
#	159626
#	172774
#	185876
#
# Disc length: 2631 seconds
#
# Revision: 1
# Processed by: cddbd v1.4PL0 Copyright (c) Steve Scherf et al.
# Submitted via: audiograbber 1.80
#
DISCID=e60a4510
DTITLE=Hawkshaw Hawkins - Vol. 1
DYEAR=1900
DGENRE=
TTITLE0=Slow Poke
TTITLE1=Sunny Side Of The Mountain
TTITLE2=I'M Kissing Your Picture Counting Tears
TTITLE3=If I Ever Get Rich Mom
TTITLE4=Rattlesnakin' Daddy
TTITLE5=I Am Slowly Dying Of A Broken Heart
TTITLE6=I Suppose
TTITLE7=I Can'T Tell My Broken Heart A Lie
TTITLE8=Picking Sweethearts
TTITLE9=Barbara Allen
TTITLE10=Would You Like To Have A Broken Heart
TTITLE11=I Love The Way You Say Goodnight
TTITLE12=Got You On My Mind
TTITLE13=Teardrops From My Eyes
TTITLE14=Somebody Lied
TTITLE15=I Hope You'Re Cryin' Too
EXTD=
EXTT0=
EXTT1=
EXTT2=
EXTT3=
EXTT4=
EXTT5=
EXTT6=
EXTT7=
EXTT8=
EXTT9=
EXTT10=
EXTT11=
EXTT12=
EXTT13=
EXTT14=
EXTT15=
PLAYORDER=
